<svg id="Layer_1" data-name="Layer 1" xmlns="http://www.w3.org/2000/svg" viewBox="0 0 308.68 113.91"><defs><style>.cls-1{fill:#fff;}.cls-2{fill:#ffe300;}</style></defs><path class="cls-1" d="M109.63,1.7h14.06c9.61,0,16.81,4.37,16.81,16,0,11.28-7.59,15.84-17.29,15.84H109.63Zm13.2,25.39c5.38,0,7.54-2.49,7.54-9.31v-.19c0-6.91-2.11-9.36-7.44-9.36h-3.46V27.09Z"/><path class="cls-1" d="M143.13,1.75h9.17V8.52h-9.17Zm.1,9.17h9V33.57h-9Z"/><path class="cls-1" d="M154.13,30.45l4-4.46a10.4,10.4,0,0,0,6.67,2.88c1.49,0,2.45-.48,2.45-1.44,0-1.2-2-1.54-4.61-2.16-3.55-.87-8-2.45-8-7.3,0-4.56,4.18-7.77,9.94-7.77,5.14,0,8.54,1.48,11,3.84,0,.19-3.74,4.32-3.74,4.32a10.25,10.25,0,0,0-6.48-2.74c-1.49,0-2.31.53-2.31,1.44,0,1.2,1.35,1.44,4.23,2.06,3.6.87,8.54,2.21,8.54,7.35,0,4.66-4.32,7.82-10.13,7.82C160.37,34.29,156.81,32.76,154.13,30.45Z"/><path class="cls-1" d="M177.31,27.62c0-4.94,4.41-6.14,8.78-7,3.51-.67,6-.77,6.19-1.92v-.14c0-1.44-.91-2.21-2.73-2.21-2.07,0-3.12,1-3.22,2.59v.39h-8.45c.1-5.48,4.28-9,11.77-9,7.68,0,11.56,2.93,11.56,10V33.57h-9V30.4a7.78,7.78,0,0,1-7.16,3.85C180.33,34.25,177.31,31.7,177.31,27.62Zm15-1.92V23a19.64,19.64,0,0,1-2.88.87c-1.67.48-3.07,1.05-3.07,2.88a2.07,2.07,0,0,0,2.31,2.11A3.39,3.39,0,0,0,192.28,25.7Z"/><path class="cls-1" d="M212.88,30.84v2.73H204V1.51h9v12a7.76,7.76,0,0,1,6.58-3.22c5.85,0,10,4.75,10,11.86v.05c0,7.15-4.08,12-10,12A8.19,8.19,0,0,1,212.88,30.84Zm7.2-8.31v-.67c0-3.89-1.35-5.38-3.65-5.38-2.59,0-3.65,1.64-3.65,5.43v.72c0,3.79,1,5.38,3.65,5.38C218.73,28,220.08,26.37,220.08,22.53Z"/><path class="cls-1" d="M231.93,1.75h9.17V8.52h-9.17Zm.1,9.17h9V33.57h-9Z"/><path class="cls-1" d="M244.36,1.51h9.08V33.57h-9.08Z"/><path class="cls-1" d="M256.6,1.75h9.17V8.52H256.6Zm.1,9.17h9V33.57h-9Z"/><path class="cls-1" d="M270.43,26.42V16.48h-2.74V10.92h2.74V6.36l8.93-3.89v8.45h3.55v5.56h-3.7v10a1.14,1.14,0,0,0,1.3,1.25h2.3v5.85h-6.38C271.39,33.19,270.47,30.84,270.43,26.42Z"/><path class="cls-1" d="M285.5,36.07h3.69c1.73,0,2.55-.14,3.17-2.5l-8.78-22.65H293l4.42,13.58,4.08-13.58h7.15l-8.49,24.86c-1.63,4.42-4.23,6.53-9.75,6.53H285.5Z"/><path class="cls-1" d="M104.25,58.69l7.78-1c.14,3.55,1.2,5.14,3.79,5.14,3,0,3.84-1.2,3.84-5V37.47h9.84V57.34c0,8.5-3.94,12.68-12.72,12.68S104.83,65.31,104.25,58.69Z"/><path class="cls-1" d="M132.33,60.46V46.69h9V59.74c0,2.26.81,3.51,2.73,3.51s2.83-1.63,2.83-4.23V46.69h9V69.34H147V66.27a7,7,0,0,1-6.53,3.65C135.4,69.92,132.33,66.56,132.33,60.46Z"/><path class="cls-1" d="M157.63,66.22l4-4.46a10.4,10.4,0,0,0,6.67,2.88c1.49,0,2.45-.48,2.45-1.44,0-1.2-2-1.54-4.61-2.16-3.55-.87-8-2.45-8-7.3,0-4.56,4.18-7.77,9.94-7.77,5.14,0,8.55,1.48,11,3.84,0,.19-3.74,4.32-3.74,4.32a10.25,10.25,0,0,0-6.48-2.74c-1.49,0-2.31.53-2.31,1.44,0,1.2,1.35,1.44,4.23,2.07,3.6.86,8.54,2.2,8.54,7.34,0,4.66-4.32,7.82-10.13,7.82C163.87,70.06,160.31,68.53,157.63,66.22Z"/><path class="cls-1" d="M182.73,62.19V52.26H180V46.69h2.74V42.13l8.93-3.89v8.45h3.55v5.57h-3.7v10a1.14,1.14,0,0,0,1.3,1.25h2.3v5.85h-6.38C183.69,69,182.78,66.61,182.73,62.19Z"/><path class="cls-1" d="M197.56,37.52h9.17v6.77h-9.17Zm.1,9.17h9V69.34h-9Z"/><path class="cls-1" d="M209,57.92c0-7.25,4.9-11.81,12.73-11.81,7,0,10.17,3,11.61,7.83l-8.06,1.87c-.34-1.78-1.15-3.51-3.31-3.51-2.45,0-3.65,1.87-3.65,5.52v.39c0,3.69,1,5.52,3.55,5.52,2.16,0,3.26-1.39,3.55-3.65l8.12,1.49c-1.16,5.13-4.61,8.35-11.77,8.35C213.59,69.92,209,65.5,209,57.92Z"/><path class="cls-1" d="M234.38,58.16c0-7.35,4.75-12.1,12.43-12.1S259,50.62,259,58.45v1.49H243c.24,2.78,1.92,4.08,4.51,4.08,2.4,0,3.89-1.16,4.42-2.93l6.91,1.58c-1.53,4.85-5,7.25-11.86,7.25C239,69.92,234.38,65.5,234.38,58.16Zm16-2.45c-.14-2.69-1.25-4-3.55-4s-3.65,1.44-3.89,4Z"/><path class="cls-1" d="M109.67,73.39h13.21c9.4,0,13.48,3.31,13.48,10.47,0,6.57-4.46,11.18-14.3,11.18h-2.54v10.23h-9.85Zm12.1,16c4.27-.2,5.28-2.26,5.28-5.57s-1.53-4.56-5.28-4.56h-2.25V89.43Z"/><path class="cls-1" d="M138.23,82.61h9.13v3.84c.81-2.5,2.73-3.94,6.28-3.94h.63v7.83h-3.12c-3,0-3.79,1.25-3.79,3.93v11h-9.13Z"/><path class="cls-1" d="M155.66,93.94c0-7.25,4.89-11.91,13.1-11.91s13,4.61,13,11.91-4.89,11.9-13.15,11.9S155.66,101.28,155.66,93.94Zm16.8.24v-.43c0-4-1.3-5.81-3.79-5.81s-3.75,1.77-3.75,5.81v.43c0,4,1.25,5.76,3.75,5.76S172.46,98.16,172.46,94.18Z"/><path class="cls-1" d="M180.86,107.81h1.63c1.25,0,1.63-.43,1.63-2.06V82.61h9v22.8c0,7.2-3.84,8.5-10.13,8.5h-2.16ZM184,73.44h9.16v6.77H184Z"/><path class="cls-1" d="M195.45,94.08c0-7.34,4.75-12.1,12.43-12.1S220,86.55,220,94.37v1.49H204c.24,2.78,1.92,4.08,4.52,4.08,2.4,0,3.88-1.15,4.41-2.93l6.91,1.58c-1.53,4.85-5,7.25-11.85,7.25C200.06,105.84,195.45,101.43,195.45,94.08Zm16-2.45c-.15-2.68-1.25-4-3.56-4s-3.65,1.44-3.88,4Z"/><path class="cls-1" d="M221.42,93.84c0-7.25,4.89-11.81,12.72-11.81,7,0,10.18,3,11.62,7.83l-8.07,1.87c-.33-1.78-1.15-3.5-3.31-3.5-2.45,0-3.65,1.87-3.65,5.52v.38c0,3.7,1.06,5.52,3.55,5.52,2.16,0,3.27-1.39,3.55-3.65L246,97.49c-1.15,5.14-4.61,8.35-11.76,8.35C226,105.84,221.42,101.43,221.42,93.84Z"/><path class="cls-1" d="M249,98.11V88.18h-2.74V82.61H249V78.05l8.93-3.89v8.45h3.55v5.57h-3.7v10a1.14,1.14,0,0,0,1.3,1.25h2.31v5.86H255C249.93,104.88,249,102.53,249,98.11Z"/><path class="cls-2" d="M40.5,0H0V107.65H38.88c32.75,0,58.37-15.4,58.37-53.5C97.25,14.75,72.93,0,40.5,0Zm-8,78.64V29.19L75.37,53.91Z"/></svg>