<svg width="40" height="40" viewBox="0 0 40 40" fill="none" xmlns="http://www.w3.org/2000/svg">
<path d="M27.6923 16.9231C27.6923 13.9583 26.6386 11.4223 24.5313 9.3149C22.4239 7.20753 19.8878 6.15385 16.9231 6.15385C13.9583 6.15385 11.4223 7.20753 9.3149 9.3149C7.20753 11.4223 6.15385 13.9583 6.15385 16.9231C6.15385 19.8878 7.20753 22.4239 9.3149 24.5313C11.4223 26.6386 13.9583 27.6923 16.9231 27.6923C19.8878 27.6923 22.4239 26.6386 24.5313 24.5313C26.6386 22.4239 27.6923 19.8878 27.6923 16.9231ZM40 36.9231C40 37.7564 39.6955 38.4776 39.0865 39.0865C38.4776 39.6955 37.7564 40 36.9231 40C36.0577 40 35.3365 39.6955 34.7596 39.0865L26.5144 30.8654C23.6458 32.8526 20.4487 33.8462 16.9231 33.8462C14.6314 33.8462 12.4399 33.4014 10.3486 32.512C8.25721 31.6226 6.45433 30.4207 4.9399 28.9063C3.42548 27.3918 2.22356 25.5889 1.33413 23.4976C0.444712 21.4063 0 19.2147 0 16.9231C0 14.6314 0.444712 12.4399 1.33413 10.3486C2.22356 8.25721 3.42548 6.45433 4.9399 4.9399C6.45433 3.42548 8.25721 2.22356 10.3486 1.33413C12.4399 0.444712 14.6314 0 16.9231 0C19.2147 0 21.4063 0.444712 23.4976 1.33413C25.5889 2.22356 27.3918 3.42548 28.9063 4.9399C30.4207 6.45433 31.6226 8.25721 32.512 10.3486C33.4014 12.4399 33.8462 14.6314 33.8462 16.9231C33.8462 20.4487 32.8526 23.6458 30.8654 26.5144L39.1106 34.7596C39.7035 35.3526 40 36.0737 40 36.9231Z" fill="black"/>
</svg>
